<?xml version="1.0" encoding="UTF-8"?>
<!DOCTYPE svg PUBLIC "-//W3C//DTD SVG 1.1//EN" "http://www.w3.org/Graphics/SVG/1.1/DTD/svg11.dtd">
<svg xmlns="http://www.w3.org/2000/svg" version="1.1" width="500px" height="500px" style="shape-rendering:geometricPrecision; text-rendering:geometricPrecision; image-rendering:optimizeQuality; fill-rule:evenodd; clip-rule:evenodd" xmlns:xlink="http://www.w3.org/1999/xlink">
<g><path style="opacity:1" fill="#fffefe" d="M 315.5,72.5 C 320.925,72.0711 324.758,74.4045 327,79.5C 358.585,131.668 389.918,184.001 421,236.5C 421.667,238.5 421.667,240.5 421,242.5C 381.247,243.996 341.413,244.663 301.5,244.5C 273.811,244.483 246.144,244.15 218.5,243.5C 218.935,236.617 221.102,230.284 225,224.5C 254.995,173.685 285.162,123.019 315.5,72.5 Z"/></g>
<g><path style="opacity:1" fill="#fefefe" d="M 84.5,78.5 C 112.164,79.0621 139.83,79.5621 167.5,80C 205.356,85.8562 226.023,107.856 229.5,146C 228.607,170.204 218.274,189.204 198.5,203C 187.75,209.64 176.083,213.14 163.5,213.5C 163.288,223.179 162.788,232.845 162,242.5C 161.25,243.126 160.416,243.626 159.5,244C 134.167,244.667 108.833,244.667 83.5,244C 82.5838,243.626 81.7504,243.126 81,242.5C 79.9058,225.694 79.4058,208.86 79.5,192C 79.9324,155.166 80.4324,118.332 81,81.5C 81.985,80.1859 83.1516,79.1859 84.5,78.5 Z"/></g>
<g><path style="opacity:1" fill="#fffefe" d="M 216.5,253.5 C 218.03,254.067 219.53,254.733 221,255.5C 221.812,309.185 221.645,362.851 220.5,416.5C 176.503,417.444 132.503,417.611 88.5,417C 86.0995,416.814 83.7662,416.314 81.5,415.5C 80.211,361.865 80.211,308.199 81.5,254.5C 85.3311,254.249 88.6644,255.416 91.5,258C 114.224,275.445 137.391,292.278 161,308.5C 161.333,293.167 161.667,277.833 162,262.5C 162.236,260.236 162.736,258.069 163.5,256C 181.342,255.52 199.009,254.686 216.5,253.5 Z"/></g>
<g><path style="opacity:1" fill="#fefefe" d="M 239.5,257.5 C 294.834,257.333 350.168,257.5 405.5,258C 406.912,261.703 406.412,265.203 404,268.5C 390.622,291.263 377.788,314.263 365.5,337.5C 365.83,340.324 366.664,342.991 368,345.5C 380.08,367.329 392.414,388.996 405,410.5C 406.252,413.014 406.752,415.68 406.5,418.5C 350.153,419.821 293.82,419.821 237.5,418.5C 238.557,411.369 241.057,404.703 245,398.5C 254.667,381.833 264.333,365.167 274,348.5C 275.92,345.162 277.42,341.662 278.5,338C 265.662,313.159 252.162,288.659 238,264.5C 237.185,261.802 237.685,259.468 239.5,257.5 Z"/></g>
</svg>
